<?xml version="1.0" encoding="UTF-8"?>
<!DOCTYPE svg PUBLIC "-//W3C//DTD SVG 1.1//EN" "http://www.w3.org/Graphics/SVG/1.1/DTD/svg11.dtd">
<!-- Creator: CorelDRAW 2020 (64-Bit) -->
<svg xmlns="http://www.w3.org/2000/svg" xml:space="preserve" width="215.9mm" height="279.4mm" version="1.1" style="shape-rendering:geometricPrecision; text-rendering:geometricPrecision; image-rendering:optimizeQuality; fill-rule:evenodd; clip-rule:evenodd"
viewBox="0 0 21590 27940"
 xmlns:xlink="http://www.w3.org/1999/xlink"
 xmlns:xodm="http://www.corel.com/coreldraw/odm/2003">
 <defs>
  <style type="text/css">
   <![CDATA[
    .fil3 {fill:#22A9DA}
    .fil5 {fill:#257DB8}
    .fil4 {fill:#008DD1}
    .fil0 {fill:url(#id0)}
    .fil2 {fill:url(#id1)}
    .fil1 {fill:url(#id2)}
   ]]>
  </style>
  <radialGradient id="id0" gradientUnits="userSpaceOnUse" gradientTransform="matrix(0.548174 -0.00384296 0.00353255 0.505589 4846 4470)" cx="10795" cy="8956.51" r="9664.42" fx="10795" fy="8956.51">
   <stop offset="0" style="stop-opacity:1; stop-color:#22A9DA"/>
   <stop offset="0.8" style="stop-opacity:1; stop-color:#119BD5"/>
   <stop offset="1" style="stop-opacity:1; stop-color:#008DD1"/>
  </radialGradient>
  <radialGradient id="id1" gradientUnits="userSpaceOnUse" gradientTransform="matrix(-0.845029 1.48762 -1.37204 -0.779415 50638 6744)" xlink:href="#id0" cx="15186.24" cy="16485.99" r="3096.61" fx="15186.24" fy="16485.99">
  </radialGradient>
  <radialGradient id="id2" gradientUnits="userSpaceOnUse" gradientTransform="matrix(0.865803 1.47563 -1.36101 0.798511 17627 -20101)" xlink:href="#id0" cx="15186.24" cy="11454.01" r="3096.61" fx="15186.24" fy="11454.01">
  </radialGradient>
 </defs>
 <g id="Layer_x0020_1">
  <metadata id="CorelCorpID_0Corel-Layer"/>
  <path class="fil0" d="M10795 8636.5c5930.57,0 10738.25,2387.89 10738.25,5333.5 0,2945.61 -4807.68,5333.5 -10738.25,5333.5 -5930.57,0 -10738.25,-2387.89 -10738.25,-5333.5 0,-2945.61 4807.68,-5333.5 10738.25,-5333.5zm0 866.35c5375.37,0 9732.97,2000.01 9732.97,4467.15 0,2467.14 -4357.6,4467.15 -9732.97,4467.15 -5375.37,0 -9732.97,-2000.01 -9732.97,-4467.15 0,-2467.14 4357.6,-4467.15 9732.97,-4467.15z"/>
  <path class="fil1" d="M15413.95 11303.25c2965.28,5136.02 3301.15,10493.54 750.18,11966.35 -2550.98,1472.8 -7022.79,-1496.83 -9988.08,-6632.85 -2965.28,-5136.02 -3301.15,-10493.54 -750.18,-11966.35 2550.98,-1472.8 7022.79,1496.83 9988.08,6632.85zm-750.28 433.17c2687.68,4655.21 3134.42,9429.01 997.82,10662.58 -2136.61,1233.57 -6047.47,-1540.22 -8735.16,-6195.42 -2687.68,-4655.21 -3134.42,-9429.01 -997.82,-10662.58 2136.61,-1233.57 6047.47,1540.22 8735.16,6195.42z"/>
  <path class="fil2" d="M15413.95 16636.75c-2965.29,5136.02 -7437.1,8105.65 -9988.07,6632.85 -2550.98,-1472.81 -2215.11,-6830.33 750.17,-11966.35 2965.29,-5136.02 7437.1,-8105.65 9988.07,-6632.85 2550.98,1472.81 2215.11,6830.33 -750.17,11966.35zm-750.28 -433.18c-2687.69,4655.21 -6598.55,7429 -8735.15,6195.43 -2136.61,-1233.57 -1689.87,-6007.37 997.81,-10662.57 2687.69,-4655.21 6598.55,-7429 8735.15,-6195.43 2136.61,1233.57 1689.87,6007.37 -997.81,10662.57z"/>
  <g id="_2568217112160">
   <path class="fil3" d="M13540.16 16432.08c-196.01,170.34 -418.87,325.53 -663.9,460.87 45.48,-36.16 -97.18,-186.25 -54,-224.74 1080.5,-939.67 1327.62,-2149.3 891.33,-3213.44 -58.86,-143.6 65.14,-201.1 65.76,-332.95 995.28,940.46 887.93,2330.13 -239.19,3310.26z"/>
   <path class="fil4" d="M13779.35 13121.82c-365.2,-345.36 -877.45,-630.06 -1542.52,-812.09 -2.95,-0.8 -5.63,-1.27 -8.58,-2.07 3.12,0.86 6.07,1.45 9.2,2.3 218.38,57.36 235.35,310.02 385.68,437.59 321.9,273.14 409.73,622.87 442.89,1084.86 49.28,687.39 45.42,1367.38 -456.63,1972.91 -263.5,317.83 -596.25,606.78 -989.59,776.5 -28.86,12.94 -57.75,25.87 -87.72,38.11 -4.66,1.18 -8.17,3.5 -12.82,4.68 -189.03,75.84 -399.07,137.68 -631.27,180.83 -814.4,154.04 -1891.36,89.84 -3194.69,-324.37 520.41,401.39 1078.14,668.58 1640.56,822.59 616.05,169.22 1237.98,204.2 1826.01,134.2 1.18,0 3.5,0 4.65,-1.18 87.52,-9.31 173.88,-22.16 259.06,-37.31 341.85,-59.51 669.73,-155.19 974.27,-278.87l1.18 0c165.68,-67.67 325.52,-143.51 477.23,-227.55 45.51,-36.16 90.99,-73.48 134.17,-112 1226.31,-1066.47 1504.03,-2513.31 768.92,-3659.13z"/>
   <path class="fil5" d="M11532.02 16619.72c1523.68,-620.86 1605.57,-2193.89 -164.88,-3079.5 -1286.09,-643.44 -718.02,-1664.84 870.31,-1230.26 1774.25,465.94 1249.39,3555.79 -705.43,4309.76z"/>
   <path class="fil3" d="M13896.51 11459.52c-1674.27,-532.44 -2973.12,-486.49 -3825.42,-143.46 -4.22,1.53 -8.4,3.07 -12.62,4.98 -1266.99,516.44 -1537.07,1691.25 -573.82,2581.43 -253.84,-210.48 -543.49,-434.31 -668.85,-718.93 -160.08,-363.45 -208.3,-813.18 -144.19,-1191.29 86.68,-511.31 409.94,-972.47 941.82,-1254.25 211.75,-112.19 530.49,-192.45 817.25,-235.6 1126.07,-134.46 2376.99,115.4 3465.83,957.12z"/>
   <path class="fil4" d="M9768.2 15715.69c-110.09,-35.64 -233.88,-52.58 -335.57,-93.47 -1293.28,-520 -1984.03,-1487.46 -1959.18,-2442.1 17.62,-678.36 415.33,-1365.37 1066.55,-1931.73 184.34,-159.97 427.16,-295.2 650.81,-428.04 0.56,-0.56 1.12,-0.56 1.65,-0.56 304.48,-124 632.21,-219.24 974.3,-279.01 86.92,-14.95 174.94,-27.68 264.07,-38.2 -105.17,16.06 -204.82,36.55 -299.47,63.1 -1673.5,455.07 -1773.69,2402.58 -646.59,3337.03 0,0 0.56,0 1.09,0.53 194.86,179.91 440.12,348.78 737.38,497.12 1166.38,584.02 807.64,1478.62 -455.04,1315.33z"/>
   <path class="fil5" d="M9768.2 15715.69c-128.98,-16.62 -267.93,-44.3 -415.19,-84.71 -2479.5,-677.57 -2843.22,-2783.42 -1303.15,-4122.54 317.77,-276.24 705.84,-511.51 1140.95,-688.09 -223.65,132.84 -430.13,280.66 -614.49,440.62 -1639.7,1426.07 -1313.09,3643.71 1191.88,4454.72z"/>
  </g>
 </g>
</svg>
